<svg width="354" height="80" viewBox="0 0 354 80" fill="none" xmlns="http://www.w3.org/2000/svg">
<path d="M46.5394 61.2662C47.9907 61.2662 48.7759 62.0276 48.7759 63.4789V74.8517C48.7759 76.303 47.9907 77.0644 46.5394 77.0644H34.4053C20.7008 77.0644 13.1349 69.6173 13.1349 55.9129V37.1883H4.21269C2.76136 37.1883 2 36.4269 2 34.9756V23.6028C2 22.1515 2.76136 21.3901 4.21269 21.3901H13.23V3.2127C13.23 1.76136 14.0152 1 15.4665 1H30.2892C31.7405 1 32.5019 1.76136 32.5019 3.2127V6.90052C32.5019 14.4665 28.2668 19.1536 21.605 19.1536C20.7008 19.1536 20.2488 19.4867 20.2488 20.2719C20.2488 21.0332 20.7008 21.3901 21.605 21.3901H46.3253C47.7766 21.3901 48.5618 22.1515 48.5618 23.6028V34.9756C48.5618 36.4269 47.7766 37.1883 46.3253 37.1883H32.4067V54.0095C32.4067 59.4818 34.4053 61.2662 40.7578 61.2662H46.5394Z" fill="#4218EC"/>
<path d="M141.233 21.3901C142.685 21.3901 143.47 22.3894 143.018 23.9359L130.646 67.8329C128.528 75.3989 124.864 78.1826 117.512 78.1826C109.827 78.1826 106.258 75.3989 104.355 67.8329L100.786 53.4623C99.5728 48.3469 99.1207 44.6829 99.0017 43.5408C98.9304 42.6129 98.5735 42.3274 97.9073 42.3274C97.2411 42.3274 96.908 42.6367 96.789 43.5408C96.6225 44.6591 96.218 48.3469 95.0046 53.4623L91.4357 67.8329C89.5561 75.3037 85.8683 78.1826 78.3023 78.1826C70.9505 78.1826 67.2627 75.3989 65.1451 67.8329L52.7731 23.9359C52.3448 22.3894 53.13 21.3901 54.5575 21.3901H69.9274C71.1646 21.3901 72.0449 21.9373 72.378 23.2697L77.1841 43.5408C78.1834 47.7759 78.3499 51.3448 78.5165 53.4623C78.5878 54.3426 78.9685 54.6757 79.6347 54.6757C80.3009 54.6757 80.7054 54.3188 80.753 53.4623C80.8243 51.5589 81.4191 47.7759 82.6326 43.5408L88.652 23.2697C88.9851 22.1515 89.7703 21.3901 91.1027 21.3901H104.688C106.02 21.3901 106.806 22.1515 107.139 23.2697L113.158 43.5408C114.395 47.6569 114.966 51.3448 115.062 53.4623C115.085 54.3426 115.49 54.6757 116.156 54.6757C116.846 54.6757 117.251 54.414 117.274 53.4623C117.369 51.1306 117.845 46.7766 118.607 43.5408L123.413 23.2697C123.746 21.9373 124.626 21.3901 125.863 21.3901H141.233Z" fill="#4218EC"/>
<path fill-rule="evenodd" clip-rule="evenodd" d="M195.813 71.949C196.146 73.2814 195.932 73.9476 194.814 74.6138C190.912 76.8502 184.345 78.0875 176.327 78.0875C155.818 78.0875 144.35 68.285 144.35 50.7976C144.35 31.8588 156.27 20.2719 175.994 20.2719C191.031 20.2719 200.167 27.2906 200.167 38.7586C200.167 50.7976 191.911 57.2453 176.66 57.2453C172.425 57.2453 168.523 56.7932 166.073 56.0319C164.621 55.5798 163.503 55.1278 162.956 55.1278C162.385 55.1278 162.052 55.4609 162.052 56.0319C162.052 56.7457 162.504 57.3643 162.956 57.9115C165.692 61.5279 171.854 63.5979 178.778 63.5979C184.012 63.5979 187.89 62.9793 190.698 61.8134C191.84 61.3852 192.91 61.6469 193.363 63.3837L195.813 71.949ZM162.504 43.5409C165.192 44.326 168.523 44.6591 172.544 44.6591C178.778 44.6591 181.776 42.9936 181.776 39.6389C181.776 36.76 179.111 34.9756 174.638 34.9756C167.738 34.9756 163.622 37.9734 162.504 43.5409Z" fill="#4218EC"/>
<path d="M260.647 41.5423V74.8517C260.647 76.303 259.862 77.0644 258.411 77.0644H243.612C242.161 77.0644 241.375 76.303 241.375 74.8517V45.8963C241.375 39.3058 238.925 36.0938 233.81 36.0938C228.789 36.0938 226.339 39.3058 226.339 45.8963V74.8517C226.339 76.303 225.554 77.0644 224.102 77.0644H209.303C207.852 77.0644 207.067 76.303 207.067 74.8517V23.6028C207.067 22.1515 207.852 21.3901 209.303 21.3901H222.77C224.435 21.3901 225.101 22.0563 225.101 23.3887C225.149 27.933 222.77 30.0744 222.77 31.5257C222.77 32.0729 223.222 32.525 223.888 32.525C224.34 32.525 224.768 32.1919 225.101 31.6209C230.122 23.8407 235.689 20.2719 243.16 20.2719C254.509 20.2719 260.647 27.7189 260.647 41.5423Z" fill="#4218EC"/>
<path d="M287.272 1C288.723 1 289.508 1.76139 289.508 3.21279V5.78249C289.508 13.6819 285.154 18.0361 277.255 18.0361H272.449C270.997 18.0361 270.236 17.251 270.236 15.7996V3.21279C270.236 1.76139 270.997 1 272.449 1H287.272Z" fill="#4218EC"/>
<path d="M277.254 21.3901C285.154 21.3901 289.508 25.7203 289.508 33.6432V74.8517C289.508 76.303 288.722 77.0644 287.271 77.0644H272.448C270.997 77.0644 270.236 76.303 270.236 74.8517V23.6028C270.236 22.1515 270.997 21.3901 272.448 21.3901H277.254Z" fill="#4218EC"/>
<path d="M351.534 74.3996C352.534 75.851 351.867 77.0644 350.083 77.0644H334.285C332.929 77.0644 332.167 76.5171 331.596 75.6368L323.911 63.5979L316.226 75.6368C315.679 76.5171 314.894 77.0644 313.562 77.0644H297.74C295.955 77.0644 295.289 75.851 296.169 74.3996L312.776 48.228L296.859 24.0549C295.836 22.6035 296.502 21.3901 298.287 21.3901H314.014C315.013 21.3901 315.893 21.7232 316.678 22.8177L351.534 74.3996Z" fill="#4218EC"/>
<path d="M327.694 32.406C326.6 31.6208 326.267 30.5026 327.028 29.2892L330.716 23.6028C331.715 22.0563 332.596 21.3901 333.952 21.3901H349.655C351.201 21.3901 351.868 22.7225 351.106 23.9359L346.871 30.4074C342.398 37.1883 336.402 38.3065 329.812 33.8573L327.694 32.406Z" fill="#4218EC"/>
</svg>
